<mxfile host="drawio-plugin" modified="2022-10-08T15:45:11.476Z" agent="5.0 (Android 6.0)" version="15.5.4" etag="CFzrR-l8cACePb0cGoqY" type="embed"><diagram id="L_y7LIErRLI--mF3cwwy" name="Page-1"><mxGraphModel dx="730" dy="880" grid="1" gridSize="10" guides="1" tooltips="1" connect="1" arrows="1" fold="1" page="1" pageScale="1" pageWidth="850" pageHeight="1100" math="0" shadow="0"><root><mxCell id="0"/><mxCell id="1" parent="0"/><mxCell id="6" value="" style="group" vertex="1" connectable="0" parent="1"><mxGeometry x="290" y="90" width="120" height="70" as="geometry"/></mxCell><mxCell id="2" value="" style="rounded=1;whiteSpace=wrap;html=1;" vertex="1" parent="6"><mxGeometry width="120" height="40" as="geometry"/></mxCell><mxCell id="3" value="element" style="rounded=1;whiteSpace=wrap;html=1;" vertex="1" parent="6"><mxGeometry x="60" y="10" width="60" height="20" as="geometry"/></mxCell><mxCell id="4" value="next" style="rounded=1;whiteSpace=wrap;html=1;" vertex="1" parent="6"><mxGeometry y="10" width="60" height="20" as="geometry"/></mxCell><mxCell id="5" value="Node" style="text;html=1;align=center;verticalAlign=middle;resizable=0;points=[];autosize=1;strokeColor=none;fillColor=none;" vertex="1" parent="6"><mxGeometry x="40" y="50" width="40" height="20" as="geometry"/></mxCell><mxCell id="9" value="null" style="whiteSpace=wrap;html=1;" vertex="1" parent="1"><mxGeometry x="180" y="100" width="70" height="20" as="geometry"/></mxCell><mxCell id="10" style="edgeStyle=orthogonalEdgeStyle;rounded=0;orthogonalLoop=1;jettySize=auto;html=1;exitX=0;exitY=0.5;exitDx=0;exitDy=0;entryX=1;entryY=0.5;entryDx=0;entryDy=0;" edge="1" parent="1" source="4" target="9"><mxGeometry relative="1" as="geometry"/></mxCell><mxCell id="11" value="null" style="whiteSpace=wrap;html=1;" vertex="1" parent="1"><mxGeometry x="455" y="100" width="70" height="20" as="geometry"/></mxCell><mxCell id="12" style="edgeStyle=orthogonalEdgeStyle;rounded=0;orthogonalLoop=1;jettySize=auto;html=1;exitX=1;exitY=0.5;exitDx=0;exitDy=0;entryX=0;entryY=0.5;entryDx=0;entryDy=0;" edge="1" parent="1" source="3" target="11"><mxGeometry relative="1" as="geometry"/></mxCell><mxCell id="13" value="init" style="text;html=1;align=center;verticalAlign=middle;resizable=0;points=[];autosize=1;strokeColor=none;fillColor=none;" vertex="1" parent="1"><mxGeometry x="45" y="130" width="30" height="20" as="geometry"/></mxCell><mxCell id="16" value="" style="edgeStyle=orthogonalEdgeStyle;rounded=0;orthogonalLoop=1;jettySize=auto;html=1;" edge="1" parent="1" source="14" target="5"><mxGeometry relative="1" as="geometry"><Array as="points"><mxPoint x="390" y="200"/><mxPoint x="350" y="200"/></Array></mxGeometry></mxCell><mxCell id="14" value="head" style="text;html=1;align=center;verticalAlign=middle;resizable=0;points=[];autosize=1;strokeColor=none;fillColor=none;" vertex="1" parent="1"><mxGeometry x="370" y="230" width="40" height="20" as="geometry"/></mxCell><mxCell id="17" value="" style="edgeStyle=orthogonalEdgeStyle;rounded=0;orthogonalLoop=1;jettySize=auto;html=1;" edge="1" parent="1" source="15" target="5"><mxGeometry relative="1" as="geometry"><Array as="points"><mxPoint x="305" y="200"/><mxPoint x="350" y="200"/></Array></mxGeometry></mxCell><mxCell id="15" value="last" style="text;html=1;align=center;verticalAlign=middle;resizable=0;points=[];autosize=1;strokeColor=none;fillColor=none;" vertex="1" parent="1"><mxGeometry x="290" y="230" width="30" height="20" as="geometry"/></mxCell><mxCell id="18" value="" style="group" vertex="1" connectable="0" parent="1"><mxGeometry x="700" y="480" width="120" height="70" as="geometry"/></mxCell><mxCell id="19" value="" style="rounded=1;whiteSpace=wrap;html=1;" vertex="1" parent="18"><mxGeometry width="120" height="40" as="geometry"/></mxCell><mxCell id="20" value="element" style="rounded=1;whiteSpace=wrap;html=1;" vertex="1" parent="18"><mxGeometry x="60" y="10" width="60" height="20" as="geometry"/></mxCell><mxCell id="21" value="next" style="rounded=1;whiteSpace=wrap;html=1;" vertex="1" parent="18"><mxGeometry y="10" width="60" height="20" as="geometry"/></mxCell><mxCell id="22" value="Node" style="text;html=1;align=center;verticalAlign=middle;resizable=0;points=[];autosize=1;strokeColor=none;fillColor=none;" vertex="1" parent="18"><mxGeometry x="40" y="50" width="40" height="20" as="geometry"/></mxCell><mxCell id="23" value="" style="group" vertex="1" connectable="0" parent="1"><mxGeometry x="520" y="480" width="120" height="70" as="geometry"/></mxCell><mxCell id="24" value="" style="rounded=1;whiteSpace=wrap;html=1;" vertex="1" parent="23"><mxGeometry width="120" height="40" as="geometry"/></mxCell><mxCell id="25" value="element" style="rounded=1;whiteSpace=wrap;html=1;" vertex="1" parent="23"><mxGeometry x="60" y="10" width="60" height="20" as="geometry"/></mxCell><mxCell id="26" value="next" style="rounded=1;whiteSpace=wrap;html=1;" vertex="1" parent="23"><mxGeometry y="10" width="60" height="20" as="geometry"/></mxCell><mxCell id="27" value="Node" style="text;html=1;align=center;verticalAlign=middle;resizable=0;points=[];autosize=1;strokeColor=none;fillColor=none;" vertex="1" parent="23"><mxGeometry x="40" y="50" width="40" height="20" as="geometry"/></mxCell><mxCell id="28" style="edgeStyle=orthogonalEdgeStyle;rounded=0;orthogonalLoop=1;jettySize=auto;html=1;exitX=0;exitY=0.5;exitDx=0;exitDy=0;entryX=1;entryY=0.5;entryDx=0;entryDy=0;" edge="1" parent="1" source="21" target="25"><mxGeometry relative="1" as="geometry"/></mxCell><mxCell id="29" value="null" style="whiteSpace=wrap;html=1;" vertex="1" parent="1"><mxGeometry x="410" y="490" width="70" height="20" as="geometry"/></mxCell><mxCell id="30" style="edgeStyle=orthogonalEdgeStyle;rounded=0;orthogonalLoop=1;jettySize=auto;html=1;exitX=0;exitY=0.5;exitDx=0;exitDy=0;entryX=1;entryY=0.5;entryDx=0;entryDy=0;" edge="1" target="29" parent="1"><mxGeometry relative="1" as="geometry"><mxPoint x="520" y="500" as="sourcePoint"/></mxGeometry></mxCell><mxCell id="31" value="e" style="whiteSpace=wrap;html=1;" vertex="1" parent="1"><mxGeometry x="575" y="430" width="70" height="20" as="geometry"/></mxCell><mxCell id="32" style="edgeStyle=orthogonalEdgeStyle;rounded=0;orthogonalLoop=1;jettySize=auto;html=1;exitX=0.5;exitY=0;exitDx=0;exitDy=0;entryX=0.5;entryY=1;entryDx=0;entryDy=0;" edge="1" parent="1" source="25" target="31"><mxGeometry relative="1" as="geometry"/></mxCell><mxCell id="34" value="" style="edgeStyle=orthogonalEdgeStyle;rounded=0;orthogonalLoop=1;jettySize=auto;html=1;" edge="1" parent="1" source="33" target="22"><mxGeometry relative="1" as="geometry"/></mxCell><mxCell id="33" value="head" style="text;html=1;align=center;verticalAlign=middle;resizable=0;points=[];autosize=1;strokeColor=none;fillColor=none;" vertex="1" parent="1"><mxGeometry x="740" y="600" width="40" height="20" as="geometry"/></mxCell><mxCell id="36" value="" style="edgeStyle=orthogonalEdgeStyle;rounded=0;orthogonalLoop=1;jettySize=auto;html=1;" edge="1" parent="1" source="35" target="27"><mxGeometry relative="1" as="geometry"/></mxCell><mxCell id="35" value="last" style="text;html=1;align=center;verticalAlign=middle;resizable=0;points=[];autosize=1;strokeColor=none;fillColor=none;" vertex="1" parent="1"><mxGeometry x="565" y="600" width="30" height="20" as="geometry"/></mxCell><mxCell id="37" value="put(e)" style="text;html=1;align=center;verticalAlign=middle;resizable=0;points=[];autosize=1;strokeColor=none;fillColor=none;" vertex="1" parent="1"><mxGeometry x="35" y="450" width="50" height="20" as="geometry"/></mxCell><mxCell id="39" value="" style="group" vertex="1" connectable="0" parent="1"><mxGeometry x="520" y="340" width="120" height="70" as="geometry"/></mxCell><mxCell id="40" value="" style="rounded=1;whiteSpace=wrap;html=1;" vertex="1" parent="39"><mxGeometry width="120" height="40" as="geometry"/></mxCell><mxCell id="41" value="element" style="rounded=1;whiteSpace=wrap;html=1;" vertex="1" parent="39"><mxGeometry x="60" y="10" width="60" height="20" as="geometry"/></mxCell><mxCell id="42" value="next" style="rounded=1;whiteSpace=wrap;html=1;" vertex="1" parent="39"><mxGeometry y="10" width="60" height="20" as="geometry"/></mxCell><mxCell id="43" value="Node" style="text;html=1;align=center;verticalAlign=middle;resizable=0;points=[];autosize=1;strokeColor=none;fillColor=none;" vertex="1" parent="39"><mxGeometry x="40" y="50" width="40" height="20" as="geometry"/></mxCell><mxCell id="44" value="step1" style="text;html=1;align=center;verticalAlign=middle;resizable=0;points=[];autosize=1;strokeColor=none;fillColor=none;" vertex="1" parent="1"><mxGeometry x="195" y="350" width="40" height="20" as="geometry"/></mxCell><mxCell id="45" value="create a new node" style="text;html=1;align=center;verticalAlign=middle;resizable=0;points=[];autosize=1;strokeColor=none;fillColor=none;" vertex="1" parent="1"><mxGeometry x="270" y="350" width="110" height="20" as="geometry"/></mxCell><mxCell id="46" value="write lock" style="text;html=1;align=center;verticalAlign=middle;resizable=0;points=[];autosize=1;strokeColor=none;fillColor=none;" vertex="1" parent="1"><mxGeometry x="270" y="420" width="70" height="20" as="geometry"/></mxCell><mxCell id="47" value="step2" style="text;html=1;align=center;verticalAlign=middle;resizable=0;points=[];autosize=1;strokeColor=none;fillColor=none;" vertex="1" parent="1"><mxGeometry x="195" y="420" width="40" height="20" as="geometry"/></mxCell><mxCell id="48" value="step3" style="text;html=1;align=center;verticalAlign=middle;resizable=0;points=[];autosize=1;strokeColor=none;fillColor=none;" vertex="1" parent="1"><mxGeometry x="195" y="490" width="40" height="20" as="geometry"/></mxCell><mxCell id="49" value="enqueue" style="text;html=1;align=center;verticalAlign=middle;resizable=0;points=[];autosize=1;strokeColor=none;fillColor=none;" vertex="1" parent="1"><mxGeometry x="270" y="490" width="60" height="20" as="geometry"/></mxCell><mxCell id="50" value="e" style="whiteSpace=wrap;html=1;" vertex="1" parent="1"><mxGeometry x="575" y="285" width="70" height="20" as="geometry"/></mxCell><mxCell id="51" value="" style="edgeStyle=orthogonalEdgeStyle;rounded=0;orthogonalLoop=1;jettySize=auto;html=1;" edge="1" parent="1" source="41" target="50"><mxGeometry relative="1" as="geometry"/></mxCell><mxCell id="53" value="null" style="whiteSpace=wrap;html=1;" vertex="1" parent="1"><mxGeometry x="410" y="350" width="70" height="20" as="geometry"/></mxCell><mxCell id="54" style="edgeStyle=orthogonalEdgeStyle;rounded=0;orthogonalLoop=1;jettySize=auto;html=1;exitX=0;exitY=0.5;exitDx=0;exitDy=0;entryX=1;entryY=0.5;entryDx=0;entryDy=0;" edge="1" target="53" parent="1"><mxGeometry relative="1" as="geometry"><mxPoint x="520" y="360" as="sourcePoint"/></mxGeometry></mxCell><mxCell id="55" value="step4" style="text;html=1;align=center;verticalAlign=middle;resizable=0;points=[];autosize=1;strokeColor=none;fillColor=none;" vertex="1" parent="1"><mxGeometry x="195" y="560" width="40" height="20" as="geometry"/></mxCell><mxCell id="56" value="increase" style="text;html=1;align=center;verticalAlign=middle;resizable=0;points=[];autosize=1;strokeColor=none;fillColor=none;" vertex="1" parent="1"><mxGeometry x="270" y="560" width="60" height="20" as="geometry"/></mxCell><mxCell id="57" value="take(e)" style="text;html=1;align=center;verticalAlign=middle;resizable=0;points=[];autosize=1;strokeColor=none;fillColor=none;" vertex="1" parent="1"><mxGeometry x="35" y="810" width="50" height="20" as="geometry"/></mxCell><mxCell id="58" value="step5" style="text;html=1;align=center;verticalAlign=middle;resizable=0;points=[];autosize=1;strokeColor=none;fillColor=none;" vertex="1" parent="1"><mxGeometry x="195" y="630" width="40" height="20" as="geometry"/></mxCell><mxCell id="59" value="unlock" style="text;html=1;align=center;verticalAlign=middle;resizable=0;points=[];autosize=1;strokeColor=none;fillColor=none;" vertex="1" parent="1"><mxGeometry x="275" y="630" width="50" height="20" as="geometry"/></mxCell><mxCell id="60" value="step1" style="text;html=1;align=center;verticalAlign=middle;resizable=0;points=[];autosize=1;strokeColor=none;fillColor=none;" vertex="1" parent="1"><mxGeometry x="195" y="750" width="40" height="20" as="geometry"/></mxCell><mxCell id="61" value="read lock" style="text;html=1;align=center;verticalAlign=middle;resizable=0;points=[];autosize=1;strokeColor=none;fillColor=none;" vertex="1" parent="1"><mxGeometry x="270" y="750" width="60" height="20" as="geometry"/></mxCell><mxCell id="62" value="step2" style="text;html=1;align=center;verticalAlign=middle;resizable=0;points=[];autosize=1;strokeColor=none;fillColor=none;" vertex="1" parent="1"><mxGeometry x="195" y="810" width="40" height="20" as="geometry"/></mxCell><mxCell id="63" value="read lock" style="text;html=1;align=center;verticalAlign=middle;resizable=0;points=[];autosize=1;strokeColor=none;fillColor=none;" vertex="1" parent="1"><mxGeometry x="270" y="810" width="60" height="20" as="geometry"/></mxCell><mxCell id="64" value="" style="group" vertex="1" connectable="0" parent="1"><mxGeometry x="700" y="870" width="120" height="70" as="geometry"/></mxCell><mxCell id="65" value="" style="rounded=1;whiteSpace=wrap;html=1;" vertex="1" parent="64"><mxGeometry width="120" height="40" as="geometry"/></mxCell><mxCell id="66" value="element" style="rounded=1;whiteSpace=wrap;html=1;" vertex="1" parent="64"><mxGeometry x="60" y="10" width="60" height="20" as="geometry"/></mxCell><mxCell id="67" value="next" style="rounded=1;whiteSpace=wrap;html=1;" vertex="1" parent="64"><mxGeometry y="10" width="60" height="20" as="geometry"/></mxCell><mxCell id="68" value="Node" style="text;html=1;align=center;verticalAlign=middle;resizable=0;points=[];autosize=1;strokeColor=none;fillColor=none;" vertex="1" parent="64"><mxGeometry x="40" y="50" width="40" height="20" as="geometry"/></mxCell><mxCell id="74" style="edgeStyle=orthogonalEdgeStyle;rounded=0;orthogonalLoop=1;jettySize=auto;html=1;exitX=0;exitY=0.5;exitDx=0;exitDy=0;entryX=0.5;entryY=0;entryDx=0;entryDy=0;" edge="1" source="67" target="65" parent="64"><mxGeometry relative="1" as="geometry"/></mxCell><mxCell id="69" value="" style="group" vertex="1" connectable="0" parent="1"><mxGeometry x="520" y="870" width="120" height="70" as="geometry"/></mxCell><mxCell id="70" value="" style="rounded=1;whiteSpace=wrap;html=1;" vertex="1" parent="69"><mxGeometry width="120" height="40" as="geometry"/></mxCell><mxCell id="71" value="element" style="rounded=1;whiteSpace=wrap;html=1;" vertex="1" parent="69"><mxGeometry x="60" y="10" width="60" height="20" as="geometry"/></mxCell><mxCell id="72" value="next" style="rounded=1;whiteSpace=wrap;html=1;" vertex="1" parent="69"><mxGeometry y="10" width="60" height="20" as="geometry"/></mxCell><mxCell id="73" value="Node" style="text;html=1;align=center;verticalAlign=middle;resizable=0;points=[];autosize=1;strokeColor=none;fillColor=none;" vertex="1" parent="69"><mxGeometry x="40" y="50" width="40" height="20" as="geometry"/></mxCell><mxCell id="75" value="null" style="whiteSpace=wrap;html=1;" vertex="1" parent="1"><mxGeometry x="410" y="880" width="70" height="20" as="geometry"/></mxCell><mxCell id="76" style="edgeStyle=orthogonalEdgeStyle;rounded=0;orthogonalLoop=1;jettySize=auto;html=1;exitX=0;exitY=0.5;exitDx=0;exitDy=0;entryX=1;entryY=0.5;entryDx=0;entryDy=0;" edge="1" target="75" parent="1"><mxGeometry relative="1" as="geometry"><mxPoint x="520" y="890" as="sourcePoint"/></mxGeometry></mxCell><mxCell id="77" value="e" style="whiteSpace=wrap;html=1;" vertex="1" parent="1"><mxGeometry x="575" y="820" width="70" height="20" as="geometry"/></mxCell><mxCell id="78" style="edgeStyle=orthogonalEdgeStyle;rounded=0;orthogonalLoop=1;jettySize=auto;html=1;exitX=0.5;exitY=0;exitDx=0;exitDy=0;entryX=0.5;entryY=1;entryDx=0;entryDy=0;" edge="1" source="71" target="77" parent="1"><mxGeometry relative="1" as="geometry"/></mxCell><mxCell id="79" value="" style="edgeStyle=orthogonalEdgeStyle;rounded=0;orthogonalLoop=1;jettySize=auto;html=1;" edge="1" source="80" target="68" parent="1"><mxGeometry relative="1" as="geometry"/></mxCell><mxCell id="80" value="head" style="text;html=1;align=center;verticalAlign=middle;resizable=0;points=[];autosize=1;strokeColor=none;fillColor=none;" vertex="1" parent="1"><mxGeometry x="740" y="990" width="40" height="20" as="geometry"/></mxCell><mxCell id="81" value="" style="edgeStyle=orthogonalEdgeStyle;rounded=0;orthogonalLoop=1;jettySize=auto;html=1;" edge="1" source="82" target="73" parent="1"><mxGeometry relative="1" as="geometry"/></mxCell><mxCell id="82" value="last" style="text;html=1;align=center;verticalAlign=middle;resizable=0;points=[];autosize=1;strokeColor=none;fillColor=none;" vertex="1" parent="1"><mxGeometry x="565" y="990" width="30" height="20" as="geometry"/></mxCell><mxCell id="83" value="step3" style="text;html=1;align=center;verticalAlign=middle;resizable=0;points=[];autosize=1;strokeColor=none;fillColor=none;" vertex="1" parent="1"><mxGeometry x="195" y="900" width="40" height="20" as="geometry"/></mxCell><mxCell id="84" value="first = head-&amp;gt;next&lt;br&gt;head-&amp;gt;next = head" style="text;html=1;align=center;verticalAlign=middle;resizable=0;points=[];autosize=1;strokeColor=none;fillColor=none;" vertex="1" parent="1"><mxGeometry x="240" y="895" width="120" height="30" as="geometry"/></mxCell><mxCell id="85" value="step4" style="text;html=1;align=center;verticalAlign=middle;resizable=0;points=[];autosize=1;strokeColor=none;fillColor=none;" vertex="1" parent="1"><mxGeometry x="195" y="1110" width="40" height="20" as="geometry"/></mxCell><mxCell id="86" value="head = first&lt;br&gt;first.element = null" style="text;html=1;align=center;verticalAlign=middle;resizable=0;points=[];autosize=1;strokeColor=none;fillColor=none;" vertex="1" parent="1"><mxGeometry x="245" y="1105" width="110" height="30" as="geometry"/></mxCell><mxCell id="87" value="" style="group" vertex="1" connectable="0" parent="1"><mxGeometry x="695" y="1110" width="120" height="70" as="geometry"/></mxCell><mxCell id="88" value="" style="rounded=1;whiteSpace=wrap;html=1;" vertex="1" parent="87"><mxGeometry width="120" height="40" as="geometry"/></mxCell><mxCell id="89" value="element" style="rounded=1;whiteSpace=wrap;html=1;" vertex="1" parent="87"><mxGeometry x="60" y="10" width="60" height="20" as="geometry"/></mxCell><mxCell id="90" value="next" style="rounded=1;whiteSpace=wrap;html=1;" vertex="1" parent="87"><mxGeometry y="10" width="60" height="20" as="geometry"/></mxCell><mxCell id="91" value="Node" style="text;html=1;align=center;verticalAlign=middle;resizable=0;points=[];autosize=1;strokeColor=none;fillColor=none;" vertex="1" parent="87"><mxGeometry x="40" y="50" width="40" height="20" as="geometry"/></mxCell><mxCell id="92" style="edgeStyle=orthogonalEdgeStyle;rounded=0;orthogonalLoop=1;jettySize=auto;html=1;exitX=0;exitY=0.5;exitDx=0;exitDy=0;entryX=0.5;entryY=0;entryDx=0;entryDy=0;" edge="1" parent="87" source="90" target="88"><mxGeometry relative="1" as="geometry"/></mxCell><mxCell id="93" value="" style="group" vertex="1" connectable="0" parent="1"><mxGeometry x="515" y="1110" width="120" height="70" as="geometry"/></mxCell><mxCell id="94" value="" style="rounded=1;whiteSpace=wrap;html=1;" vertex="1" parent="93"><mxGeometry width="120" height="40" as="geometry"/></mxCell><mxCell id="95" value="element" style="rounded=1;whiteSpace=wrap;html=1;" vertex="1" parent="93"><mxGeometry x="60" y="10" width="60" height="20" as="geometry"/></mxCell><mxCell id="96" value="next" style="rounded=1;whiteSpace=wrap;html=1;" vertex="1" parent="93"><mxGeometry y="10" width="60" height="20" as="geometry"/></mxCell><mxCell id="97" value="Node" style="text;html=1;align=center;verticalAlign=middle;resizable=0;points=[];autosize=1;strokeColor=none;fillColor=none;" vertex="1" parent="93"><mxGeometry x="40" y="50" width="40" height="20" as="geometry"/></mxCell><mxCell id="98" value="null" style="whiteSpace=wrap;html=1;" vertex="1" parent="1"><mxGeometry x="405" y="1120" width="70" height="20" as="geometry"/></mxCell><mxCell id="99" style="edgeStyle=orthogonalEdgeStyle;rounded=0;orthogonalLoop=1;jettySize=auto;html=1;exitX=0;exitY=0.5;exitDx=0;exitDy=0;entryX=1;entryY=0.5;entryDx=0;entryDy=0;" edge="1" target="98" parent="1"><mxGeometry relative="1" as="geometry"><mxPoint x="515" y="1130" as="sourcePoint"/></mxGeometry></mxCell><mxCell id="100" value="null" style="whiteSpace=wrap;html=1;" vertex="1" parent="1"><mxGeometry x="570" y="1060" width="70" height="20" as="geometry"/></mxCell><mxCell id="101" style="edgeStyle=orthogonalEdgeStyle;rounded=0;orthogonalLoop=1;jettySize=auto;html=1;exitX=0.5;exitY=0;exitDx=0;exitDy=0;entryX=0.5;entryY=1;entryDx=0;entryDy=0;" edge="1" source="95" target="100" parent="1"><mxGeometry relative="1" as="geometry"/></mxCell><mxCell id="102" value="" style="edgeStyle=orthogonalEdgeStyle;rounded=0;orthogonalLoop=1;jettySize=auto;html=1;entryX=0.463;entryY=1.178;entryDx=0;entryDy=0;entryPerimeter=0;" edge="1" source="103" target="97" parent="1"><mxGeometry relative="1" as="geometry"><Array as="points"><mxPoint x="755" y="1210"/><mxPoint x="574" y="1210"/></Array></mxGeometry></mxCell><mxCell id="103" value="head" style="text;html=1;align=center;verticalAlign=middle;resizable=0;points=[];autosize=1;strokeColor=none;fillColor=none;" vertex="1" parent="1"><mxGeometry x="735" y="1230" width="40" height="20" as="geometry"/></mxCell><mxCell id="104" value="" style="edgeStyle=orthogonalEdgeStyle;rounded=0;orthogonalLoop=1;jettySize=auto;html=1;" edge="1" source="105" target="97" parent="1"><mxGeometry relative="1" as="geometry"/></mxCell><mxCell id="105" value="last" style="text;html=1;align=center;verticalAlign=middle;resizable=0;points=[];autosize=1;strokeColor=none;fillColor=none;" vertex="1" parent="1"><mxGeometry x="560" y="1230" width="30" height="20" as="geometry"/></mxCell><mxCell id="106" value="step5" style="text;html=1;align=center;verticalAlign=middle;resizable=0;points=[];autosize=1;strokeColor=none;fillColor=none;" vertex="1" parent="1"><mxGeometry x="195" y="1200" width="40" height="20" as="geometry"/></mxCell><mxCell id="107" value="unlock" style="text;html=1;align=center;verticalAlign=middle;resizable=0;points=[];autosize=1;strokeColor=none;fillColor=none;" vertex="1" parent="1"><mxGeometry x="275" y="1200" width="50" height="20" as="geometry"/></mxCell></root></mxGraphModel></diagram></mxfile>